<svg width="1600" height="1100" viewBox="0 0 1600 1100" fill="none" xmlns="http://www.w3.org/2000/svg">
  <rect width="1600" height="1100" fill="#B9925A"/>
  <path d="M0 708C219 642 401 673 584 616C803 548 1012 570 1182 636C1325 691 1460 675 1600 609V1100H0V708Z" fill="#17382D"/>
  <path d="M460 534L626 352H1024L1163 534V810H460V534Z" fill="#F6F0E6"/>
  <path d="M412 540L626 288H1024L1212 540H1098L982 407H668L548 540H412Z" fill="#202421"/>
  <rect x="560" y="585" width="232" height="184" fill="#17382D"/>
  <rect x="846" y="585" width="150" height="225" fill="#D2B47C"/>
  <path d="M0 904H1600V1100H0V904Z" fill="#0C211B"/>
</svg>
