<svg width="1600" height="1100" viewBox="0 0 1600 1100" fill="none" xmlns="http://www.w3.org/2000/svg">
  <rect width="1600" height="1100" fill="#0C211B"/>
  <path d="M0 735C230 630 383 683 559 606C775 511 914 523 1093 592C1241 649 1392 640 1600 544V1100H0V735Z" fill="#748064"/>
  <path d="M0 815C236 748 421 761 604 709C848 640 1021 702 1193 742C1321 772 1462 763 1600 703V1100H0V815Z" fill="#17382D"/>
  <path d="M345 579L548 361H1061L1264 579V855H345V579Z" fill="#D8D0C3"/>
  <path d="M286 585L548 292H1061L1324 585H1196L1012 396H595L412 585H286Z" fill="#202421"/>
  <rect x="458" y="605" width="214" height="198" fill="#FFF4D3"/>
  <rect x="733" y="605" width="164" height="250" fill="#17382D"/>
  <rect x="955" y="605" width="214" height="198" fill="#B9925A"/>
  <path d="M0 938H1600V1100H0V938Z" fill="#091713"/>
  <circle cx="1268" cy="238" r="82" fill="#D2B47C" fill-opacity=".35"/>
</svg>
